#!OML:ASF E:\Style6\Style6.ASF
:FULLY-SPECIFIED
:DEGREES
4104
root 0.87414 17.3435 -1.917 31.1484 8.20024 -3.12855
lowerback 31.8614 0.564615 1.37357
upperback 16.138 1.24838 2.73152
thorax 0.977822 0.572666 1.87617
lowerneck -3.34133 -6.18254 1.46664
upperneck -20.7246 -7.93161 5.19064
head -5.56619 -4.47365 1.69466
rclavicle 1.49089e-014 1.2921e-015
rhumerus 32.19 28.5244 -71.7058
rradius 119.93
rwrist 5.5617
rhand -30.2189 15.8508
rfingers 7.12502
rthumb -3.52884 -14.0998
lclavicle 1.49089e-014 1.2921e-015
lhumerus 23.0259 -16.9324 59.6737
lradius 123.21
lwrist -4.30983
lhand -22.2327 17.4289
lfingers 7.12502
lthumb 4.18402 47.3676
rfemur -57.6727 -7.22716 24.684
rtibia 33.7172
rfoot -2.9844 -12.7706
rtoes -7.44422
lfemur -61.5013 -3.77502 -13.6379
ltibia 39.7834
lfoot -3.82003 4.10143
ltoes -20.176
4105
root 0.873888 17.3414 -1.92257 31.1557 8.12113 -3.07997
lowerback 31.8386 0.616249 1.28068
upperback 16.1418 1.28602 2.72524
thorax 0.988692 0.58559 1.91139
lowerneck -3.37777 -6.13706 1.54402
upperneck -20.7177 -7.89205 5.03638
head -5.56923 -4.44841 1.63165
rclavicle 8.74653e-015 1.5207e-014
rhumerus 32.1837 28.4125 -71.7236
rradius 119.912
rwrist 5.62348
rhand -30.19 16.0138
rfingers 7.12502
rthumb -3.50097 -13.9372
lclavicle 8.74653e-015 1.5207e-014
lhumerus 23.1726 -16.9599 59.6887
lradius 123.16
lwrist -4.38625
lhand -22.2177 17.3652
lfingers 7.12502
lthumb 4.19856 47.3035
rfemur -57.7306 -7.21494 24.6167
rtibia 33.7586
rfoot -2.97059 -12.7516
rtoes -7.09926
lfemur -61.5311 -3.72516 -13.7458
ltibia 39.8316
lfoot -3.85548 4.11922
ltoes -20.0534
4106
root 0.874551 17.3378 -1.92784 31.1736 8.15268 -3.17014
lowerback 31.7711 0.633581 1.32303
upperback 16.1417 1.31825 2.79706
thorax 1.01595 0.599608 1.95786
lowerneck -3.40522 -6.08239 1.49797
upperneck -20.6972 -7.83329 4.93184
head -5.56153 -4.40743 1.60281
rclavicle -2.38542e-015 -2.31087e-014
rhumerus 32.1716 28.3639 -71.7082
rradius 119.95
rwrist 5.70911
rhand -30.1771 15.9579
rfingers 7.12502
rthumb -3.48844 -13.9933
lclavicle -2.38542e-015 -2.31087e-014
lhumerus 23.2797 -16.9106 59.7186
lradius 123.127
lwrist -4.41034
lhand -22.3336 17.2882
lfingers 7.12502
lthumb 4.08665 47.2287
rfemur -57.7883 -7.18586 24.7228
rtibia 33.7867
rfoot -2.92866 -12.7494
rtoes -7.09849
lfemur -61.6368 -3.66611 -13.6643
ltibia 39.9084
lfoot -3.89119 4.07838
ltoes -19.5585
4107
root 0.87546 17.3348 -1.93367 31.1801 8.17321 -3.29179
lowerback 31.7562 0.61541 1.41478
upperback 16.1452 1.3193 2.8422
thorax 1.02771 0.602518 1.95537
lowerneck -3.57037 -5.96878 1.48578
upperneck -20.6068 -7.70667 4.75594
head -5.51462 -4.32825 1.53694
rclavicle -1.41137e-014 -4.42296e-015
rhumerus 32.1988 28.3573 -71.7262
rradius 119.969
rwrist 5.87357
rhand -30.194 15.9998
rfingers 7.12502
rthumb -3.50477 -13.9512
lclavicle -1.41137e-014 -4.42296e-015
lhumerus 23.3614 -16.7504 59.7061
lradius 123.122
lwrist -4.38624
lhand -22.3427 17.3745
lfingers 7.12502
lthumb 4.07781 47.3152
rfemur -57.8486 -7.16449 24.8753
rtibia 33.8242
rfoot -2.92252 -12.7093
rtoes -7.279
lfemur -61.7501 -3.59378 -13.5543
ltibia 40.0086
lfoot -3.88363 4.03236
ltoes -19.3857
4108
root 0.876071 17.3308 -1.93888 31.1694 8.09111 -3.33095
lowerback 31.7617 0.631233 1.38501
upperback 16.1551 1.32974 2.85731
thorax 1.03581 0.60403 1.98627
lowerneck -3.73191 -5.79709 1.49476
upperneck -20.5355 -7.51013 4.49531
head -5.47963 -4.21008 1.44004
rclavicle -1.25234e-014 -2.46493e-014
rhumerus 32.2564 28.3184 -71.7186
rradius 119.984
rwrist 6.08293
rhand -30.1147 16.0375
rfingers 7.12502
rthumb -3.42826 -13.9147
lclavicle -1.25234e-014 -2.46493e-014
lhumerus 23.4142 -16.5981 59.7092
lradius 123.175
lwrist -4.26943
lhand -22.2544 17.5482
lfingers 7.12502
lthumb 4.1631 47.4873
rfemur -57.9088 -7.12015 24.9003
rtibia 33.891
rfoot -3.08521 -12.6905
rtoes -6.65733
lfemur -61.8055 -3.52063 -13.5606
ltibia 40.1225
lfoot -3.94998 4.07731
ltoes -19.618
4109
root 0.876717 17.323 -1.94278 31.1869 8.04033 -3.33059
lowerback 31.7525 0.6122 1.36595
upperback 16.1276 1.30177 2.86632
thorax 1.00745 0.588276 2.01498
lowerneck -3.63181 -5.59513 1.52382
upperneck -20.6707 -7.27506 4.15163
head -5.5571 -4.07254 1.32792
rclavicle 1.45113e-014 7.70291e-015
rhumerus 32.2523 28.3315 -71.7375
rradius 119.999
rwrist 6.29663
rhand -30.0967 16.0799
rfingers 7.12502
rthumb -3.41087 -13.8726
lclavicle 1.45113e-014 7.70291e-015
lhumerus 23.3507 -16.5144 59.7444
lradius 123.285
lwrist -4.26127
lhand -22.165 17.8811
lfingers 7.12502
lthumb 4.24946 47.8185
rfemur -58.0162 -7.14759 24.9297
rtibia 33.9844
rfoot -3.27372 -12.6157
rtoes -5.38888
lfemur -61.8924 -3.4637 -13.5998
ltibia 40.238
lfoot -4.01366 4.09425
ltoes -19.31
4110
root 0.878601 17.3152 -1.94792 31.1727 7.96263 -3.28691
lowerback 31.794 0.548572 1.17477
upperback 16.0272 1.18315 2.94574
thorax 0.869928 0.513554 2.24598
lowerneck -3.2081 -5.30894 1.25582
upperneck -20.8647 -6.92967 3.74521
head -5.69696 -3.85341 1.25126
rclavicle 1.55052e-014 -1.51076e-014
rhumerus 32.1803 28.7212 -71.6866
rradius 120.066
rwrist 6.34354
rhand -30.0683 16.1007
rfingers 7.12502
rthumb -3.38344 -13.8522
lclavicle 1.55052e-014 -1.51076e-014
lhumerus 22.9016 -16.3161 60.0327
lradius 123.407
lwrist -4.33184
lhand -22.0755 18.2491
lfingers 7.12502
lthumb 4.33582 48.1847
rfemur -58.0974 -7.16257 24.8749
rtibia 34.0922
rfoot -3.17304 -12.5349
rtoes -5.69672
lfemur -61.9266 -3.38541 -13.7267
ltibia 40.3361
lfoot -4.04888 4.0354
ltoes -18.6449
4111
root 0.881358 17.3122 -1.95485 31.0945 7.90822 -3.29332
lowerback 31.8972 0.467685 1.0216
upperback 15.897 1.05619 3.05169
thorax 0.673501 0.436097 2.48744
lowerneck -2.83792 -4.95711 0.94915
upperneck -20.8706 -6.50825 3.27235
head -5.77004 -3.58445 1.14861
rclavicle -3.18055e-015 -2.20154e-014
rhumerus 32.0361 29.1742 -71.6582
rradius 120.11
rwrist 6.19646
rhand -30.0378 16.3647
rfingers 7.12502
rthumb -3.35392 -13.5886
lclavicle -3.18055e-015 -2.20154e-014
lhumerus 22.429 -15.9265 60.2262
lradius 123.449
lwrist -4.16833
lhand -22.1848 18.2559
lfingers 7.12502
lthumb 4.23035 48.1936
rfemur -58.093 -7.19432 24.8889
rtibia 34.1709
rfoot -2.94949 -12.4357
rtoes -7.0475
lfemur -61.8917 -3.28647 -13.822
ltibia 40.4159
lfoot -4.08521 3.94624
ltoes -19.0852
4112
root 0.883722 17.3109 -1.9613 31.0354 7.89276 -3.30284
lowerback 31.9749 0.431106 1.05293
upperback 15.8361 1.0241 3.08277
thorax 0.570504 0.420695 2.51283
lowerneck -2.97709 -4.5996 1.07865
upperneck -20.6326 -6.11378 2.583
head -5.70319 -3.34407 0.886477
rclavicle -2.5842e-015 1.07095e-014
rhumerus 31.9564 29.2025 -71.6822
rradius 120.129
rwrist 6.21455
rhand -30.0947 16.6238
rfingers 7.12502
rthumb -3.40894 -13.3287
lclavicle -2.5842e-015 1.07095e-014
lhumerus 22.4939 -15.4844 60.0735
lradius 123.341
lwrist -3.77789
lhand -22.1326 17.901
lfingers 7.12502
lthumb 4.2807 47.8378
rfemur -58.0776 -7.25856 24.9397
rtibia 34.2065
rfoot -3.09591 -12.3889
rtoes -6.05889
lfemur -61.8788 -3.2297 -13.8814
ltibia 40.4689
lfoot -4.13383 3.89502
ltoes -19.3547
4113
root 0.886198 17.3111 -1.96759 30.996 7.86095 -3.31857
lowerback 31.9548 0.436481 1.13976
upperback 15.8929 1.05046 3.09897
thorax 0.646095 0.437221 2.47394
lowerneck -3.22668 -4.14289 1.48983
upperneck -20.5435 -5.63199 1.55122
head -5.68087 -3.05996 0.468266
rclavicle 6.55989e-015 1.41634e-015
rhumerus 32.0129 28.9831 -71.7091
rradius 120.259
rwrist 6.54091
rhand -29.9497 16.329
rfingers 7.12502
rthumb -3.26887 -13.6256
lclavicle 6.55989e-015 1.41634e-015
lhumerus 22.7953 -15.3382 60.0124
lradius 123.254
lwrist -3.70375
lhand -22.0809 17.815
lfingers 7.12502
lthumb 4.33068 47.7507
rfemur -58.067 -7.25804 24.9477
rtibia 34.2152
rfoot -3.27641 -12.38
rtoes -4.78596
lfemur -61.8723 -3.18638 -13.9102
ltibia 40.5069
lfoot -4.15088 3.89108
ltoes -19.2573
